<svg width="100%" height="100%" viewBox="0 0 32 42" fill="none" xmlns="http://www.w3.org/2000/svg">
  <path fill-rule="evenodd" clip-rule="evenodd" d="M9.262 29.08H7.056c-.706 0-1.233-.56-1.114-1.136L9.773 9.107 4.863 5 .051 30.334c-.046.232-.06.47-.045.706.118 1.663 1.708 3.012 3.55 3.012l12.59.01 1.002-4.983H9.262Z" fill="#D2FF00"/><path fill-rule="evenodd" clip-rule="evenodd" d="m18.174 24.235 1.992-10.037 4.416-.007c.706 0 1.233.56 1.114 1.135L21.86 34.17l4.91 4.108 4.81-25.338c.046-.232.06-.47.043-.706-.116-1.663-1.706-3.012-3.548-3.012l-12.59-.01-3.028 15.017 5.717.006ZM9.956 39.028h.845c.044 0 .064.01.06.029l-.177.95h-.91l.182-.98ZM4.25 40.653h.715l.214 1.046a.23.23 0 0 0 .225.183h.653l-.345-1.793 1.037-1.792h-.842l-.857 1.599h-.663l.325-1.595h-.436a.427.427 0 0 0-.426.347l-.286 1.444-.285 1.525a.23.23 0 0 0 .224.269h.519l.228-1.233Zm9.983-2.359-.622 3.33a.23.23 0 0 0 .224.268h.475l.217-1.161h.674l.238 1.16h.794l-.263-1.352c.162-.073.28-.303.353-.691l.127-.672c.108-.588-.1-.883-.624-.883l-1.593.001Zm.613.729h.844c.027 0 .037.01.033.028l-.17.922c0 .019-.03.029-.074.029h-.816l.183-.98Zm4.433 0-.486 2.6a.216.216 0 0 0 .05.186.223.223 0 0 0 .174.083h.466l.536-2.87h.816l.035-.191a.438.438 0 0 0-.1-.379.443.443 0 0 0-.35-.164h-1.832l-.133.728.824.007Zm-9.949-.614-.599 3.214a.212.212 0 0 0 .05.186.222.222 0 0 0 .175.083h.464l.216-1.161h.912l-.217 1.16h.738l.54-2.877c.09-.48-.12-.72-.632-.72H9.352l-.022.115Z" fill="#D2FF00"/>
</svg>