<svg width="100%" height="100%" viewBox="0 0 80 42" fill="none" xmlns="http://www.w3.org/2000/svg">
  <path d="M12.697 7.378C5.154 10.928 1 15.713 1 20.852c0 5.14 4.154 9.925 11.697 13.475 7.371 3.467 17.168 5.383 27.547 5.383 10.379 0 20.181-1.91 27.547-5.383 7.543-3.55 11.697-8.335 11.697-13.475 0-5.14-4.148-9.924-11.708-13.474C60.41 3.91 50.612 2 40.233 2 29.854 2 20.068 3.905 12.697 7.378Z" stroke="#D2FF00" stroke-width=".138"/><path d="M40.243 37.84c10.21 0 19.485-1.837 26.235-4.834 3.374-1.498 6.146-3.3 8.085-5.335 1.942-2.039 3.074-4.344 3.074-6.818 0-2.475-1.132-4.78-3.074-6.819C72.624 12 69.851 10.198 66.478 8.7c-6.75-2.997-16.026-4.834-26.235-4.834-10.21 0-19.486 1.837-26.235 4.834-3.374 1.498-6.147 3.3-8.086 5.335-1.942 2.038-3.074 4.343-3.074 6.818 0 2.474 1.132 4.78 3.074 6.818 1.939 2.035 4.712 3.837 8.086 5.335 6.75 2.997 16.025 4.833 26.235 4.833Z" stroke="#D2FF00" stroke-width="1.374"/><path d="M70.166 24.408a1.108 1.108 0 1 1 .067 2.215 1.108 1.108 0 0 1-.067-2.215Zm.034-.238a1.335 1.335 0 1 0-.011 2.669 1.335 1.335 0 0 0 .01-2.67Zm-.499.554v1.545h.294v-.654.04l.033.043.393.554h.355l-.493-.67h.05a.405.405 0 0 0 .404-.443.443.443 0 0 0-.116-.316c-.078-.077-.161-.1-.355-.1h-.565Zm.288.249h.244c.171 0 .233.055.233.205s-.078.227-.244.227h-.227l-.006-.432ZM24.582 18.515s1.284-.554 1.273-2.963c0-3.024-3.982-3.473-4.491-3.473l-8.108-.044.033 14.4s8.601.127 9.842-.161a4.432 4.432 0 0 0 3.406-4.17 3.877 3.877 0 0 0-1.955-3.59Zm-6.497-2.58h2.304s.709.038.698.603a.736.736 0 0 1-.648.73h-2.376l.022-1.334Zm2.808 6.545h-2.769v-1.794h2.72s.835.055.819.808a.924.924 0 0 1-.787.97l.017.016ZM28.83 12.074h12.234v4.07h-7.36v1.014h6.612v3.883h-6.612v1.312h7.277v4.193h-12.15V12.074ZM43.605 12.074h4.952v10.28h6.092v4.192H43.605V12.074ZM56.582 12.118h4.951v10.285h6.092v4.187H56.582V12.118ZM38.14 33.047v-4.143h1.395l.82 2.443.775-2.443h1.396v4.143H41.49v-2.215l-.753 2.215h-.814l-.753-2.215v2.215h-1.03Zm-10.235-2.658V28.86h1.174v4.226h-1.174v-1.717h-1.44v1.717h-1.18V28.86h1.18v1.529h1.44Zm3.223-.554v.604h2.027v.924h-2.027v.731h2.26v.98h-3.434V28.85h3.39v.98l-2.216.006Zm6.291 2.26v.98h-3.217v-4.226h1.174v3.245h2.044Zm7.2-2.26v.604h2.027v.924h-2.054v.731h2.26v.98h-3.44V28.85h3.39v.98l-2.183.006Zm6.486-.98v.98H49.82v3.245h-1.175v-3.245h-1.251v-.98h3.71Zm1.971 3.361c.106.023.213.035.321.033h.25a.899.899 0 0 0 .227-.066.444.444 0 0 0 .16-.116.255.255 0 0 0 .056-.172.216.216 0 0 0-.072-.172.708.708 0 0 0-.239-.144 2.854 2.854 0 0 0-.382-.11l-.454-.111a4.667 4.667 0 0 1-.47-.139 1.773 1.773 0 0 1-.433-.227 1.164 1.164 0 0 1-.32-.354 1.108 1.108 0 0 1-.123-.554 1.107 1.107 0 0 1 .155-.593c.102-.165.238-.307.4-.415.168-.113.356-.195.553-.244.195-.05.396-.077.598-.077.222 0 .443.025.66.077.207.044.404.127.58.244a1.263 1.263 0 0 1 .555 1.108v.122h-1.163v-.117a.554.554 0 0 0-.067-.243.372.372 0 0 0-.133-.139.66.66 0 0 0-.216-.077 1.459 1.459 0 0 0-.288 0 1.022 1.022 0 0 0-.2 0 .511.511 0 0 0-.16.06.389.389 0 0 0-.11.106.238.238 0 0 0-.04.144.221.221 0 0 0 .028.122c.034.04.078.07.128.088.117.048.237.087.36.116l.637.156.332.083c.158.044.31.11.448.2.155.098.287.228.388.381.121.182.182.397.172.615 0 .191-.04.38-.122.554-.087.177-.214.33-.371.448-.176.13-.375.226-.587.283a2.81 2.81 0 0 1-.787.1c-.237 0-.473-.03-.703-.09a1.848 1.848 0 0 1-.62-.27 1.413 1.413 0 0 1-.432-.482 1.385 1.385 0 0 1-.155-.693v-.121h1.146v.121a.555.555 0 0 0 .222.471.868.868 0 0 0 .243.1l.028-.006Z" fill="currentColor"/>
</svg>