<svg xmlns="http://www.w3.org/2000/svg" viewBox="0 0 13.51 15.32">
  <g>
    <path d="M4.9 15.32c-.37 0-.73-.07-1.07-.2s-.65-.34-.92-.61L.12 10.58a.747.747 0 0 1 .2-1.02l1.17-.8c.22-.22.52-.22.81-.13L2.27.77c0-.22.08-.4.23-.55S2.84 0 3.05 0s.39.07.54.22c.14.15.22.33.22.55v10.22s.02 1.13.02 1.55.28 1.26 1.08 1.26h4.78c.61 0 1.14-.2 1.57-.61.49-.47.73-1.15.73-1.83V7.15c0-.22.08-.4.23-.55s.34-.22.55-.22.39.07.54.22c.14.15.22.33.22.55v4.34c0 1.07-.37 1.98-1.11 2.72s-1.65 1.11-2.72 1.11H4.9Z" fill="currentColor"/>
    <path d="M5.51 7.92V3.83c0-.22.08-.4.23-.55.15-.14.34-.22.55-.22s.39.07.54.22c.14.15.22.33.22.55v4.09H5.51ZM8.73 7.92V5.11c0-.22.08-.4.23-.55s.34-.22.55-.22.39.07.54.22c.14.15.22.33.22.55v2.81H8.73Z" fill="currentColor"/>
  </g>
</svg>