<svg width="100%" height="100%" viewBox="0 0 67 42" fill="none" xmlns="http://www.w3.org/2000/svg">
  <path d="M1.432 26.817h4.652v.572h-4.03v3.051H5.4v.572H2.054v3.028h4.257v.572H1.43v-7.795ZM10.2 26.817h.628v7.223h4.08v.572H10.2v-7.795ZM18.582 26.817h4.653v.572h-4.03v3.051h3.35v.572H19.21v3.028h4.251v.572h-4.885v-7.795h.006ZM26.768 30.75c0-2.218 1.347-3.984 3.832-3.984 1.098 0 2.184.447 3.005 1.471l-.47.408c-.713-.9-1.59-1.285-2.535-1.285-2.021 0-3.181 1.449-3.181 3.39 0 2.106 1.392 3.317 3.192 3.317 1.132 0 1.941-.526 2.536-1.262l.47.396c-.68.844-1.636 1.46-3.006 1.46-2.1-.005-3.843-1.38-3.843-3.91ZM39.147 27.39h-2.434v-.573h5.53v.572h-2.468v7.223h-.628v-7.223ZM45.916 26.817h2.666c1.743 0 2.502.99 2.502 2.304 0 1.393-.821 2.117-2.129 2.281l2.282 3.204h-.759l-2.219-3.147h-1.72v3.147h-.629v-7.789h.006Zm2.445 4.064c1.494 0 2.072-.758 2.072-1.754 0-1.155-.736-1.732-1.908-1.732H46.54v3.492h1.822v-.006ZM55.285 26.817h.629v7.795h-.629v-7.795ZM60.027 30.75c0-2.218 1.347-3.984 3.832-3.984 1.098 0 2.185.447 3.006 1.471l-.47.408c-.713-.9-1.59-1.285-2.536-1.285-2.02 0-3.18 1.449-3.18 3.39 0 2.106 1.392 3.317 3.192 3.317 1.132 0 1.941-.526 2.535-1.262l.47.396c-.679.844-1.636 1.46-3.005 1.46-2.1-.005-3.844-1.38-3.844-3.91ZM66.65 21.655v-2.587h-6.934v-3.385h5.219V13.12h-5.22V9.604h6.505V7.006h-9.363v14.649h9.793ZM39.057 14.075h-1.432v2.57h1.432v5.004h2.864v-5.015h3.045c.816 0 1.546-.096 2.202-.294.657-.199 1.223-.482 1.687-.872.476-.39.832-.883 1.093-1.489.254-.605.379-1.296.379-2.094 0-.719-.102-1.364-.306-1.953a4.3 4.3 0 0 0-.911-1.545c-.396-.447-.94-.787-1.59-1.025C46.856 7.125 46.097 7 45.226 7h-6.17v7.075Zm6.028-4.488a2.25 2.25 0 0 1 2.248 2.247 2.25 2.25 0 0 1-2.248 2.247h-3.164V9.587h3.164Z" fill="#D2FF00"/><path d="m45.142 14.075 4.981 7.58H46.88l-4.97-7.58h3.232ZM22.483 17.302c-.226-.55-.34-1.183-.34-1.896v-8.4h-2.909v8.587c0 .985.142 1.879.425 2.654.283.787.685 1.444 1.206 1.964.52.521 1.137.917 1.868 1.195a6.73 6.73 0 0 0 2.405.419c1.24 0 2.315-.255 3.204-.77.9-.51 1.573-1.234 2.049-2.163.464-.928.702-2.037.702-3.3V7.007h-2.904v8.4c0 1.149-.283 2.054-.843 2.711-.56.662-1.297.996-2.208.996-.628 0-1.166-.158-1.63-.492-.459-.323-.798-.77-1.025-1.319ZM1.432 14.075H0v2.57h1.432v5.004h2.864v-5.015h3.045c.816 0 1.546-.096 2.202-.294.657-.199 1.223-.482 1.687-.872.476-.39.832-.883 1.092-1.489.255-.605.38-1.296.38-2.094 0-.719-.102-1.364-.306-1.953a4.3 4.3 0 0 0-.911-1.545c-.396-.447-.94-.787-1.59-1.025C9.237 7.125 8.478 7 7.606 7h-6.17v7.075h-.005ZM7.46 9.587a2.249 2.249 0 0 1 2.247 2.247A2.25 2.25 0 0 1 7.46 14.08H4.285V9.587H7.46Z" fill="currentColor"/>
</svg>