<svg width="100%" height="100%" viewBox="0 0 78 42" fill="none" xmlns="http://www.w3.org/2000/svg">
  <path d="M74.698 30.86h2.29V15.323h-2.29V30.86ZM40.344 15.323v11.763c0 .146 0 1.502-1.465 1.502H25.357c-1.466 0-1.466-1.356-1.466-1.502V15.323h-10.59V30.86h2.309V17.613h5.973v10.06c0 1.245.843 3.187 3.243 3.187h14.547c2.419 0 3.262-1.942 3.262-3.188v-12.33h-2.29v-.019Zm28.308 0-10.15 13.412-10.15-13.412H44.76V30.86h2.309V17.393L57.2 30.86h2.62l10.095-13.467V30.86h2.309V15.323h-3.573ZM.402 10.999v6.614h8.282V30.86h2.309V15.323H2.71v-2.07h74.296v-2.254H.402Z" fill="currentColor"/>
</svg>