<svg width="100%" height="100%" viewBox="0 0 78 42" fill="none" xmlns="http://www.w3.org/2000/svg">
  <path d="M13.988 29.19c3.224 0 5.718-2.488 5.718-6.17V8.694h3.49V31.91h-3.457v-2.156c-1.563 1.625-3.723 2.553-6.15 2.553-4.987 0-8.81-3.615-8.81-9.085V8.696h3.49v14.325c0 3.748 2.46 6.17 5.718 6.17M25.79 8.693h3.358v8.458a8.385 8.385 0 0 1 6.017-2.521c4.987 0 8.91 3.947 8.91 8.855 0 4.876-3.923 8.822-8.91 8.822a8.476 8.476 0 0 1-6.053-2.52v2.122h-3.327l.005-23.216Zm9.142 20.663c3.192 0 5.819-2.62 5.819-5.87 0-3.284-2.627-5.871-5.819-5.871a5.839 5.839 0 0 0-5.85 5.87 5.84 5.84 0 0 0 5.85 5.871ZM54.115 14.663c4.887 0 8.478 3.748 8.478 8.79v1.094H48.798c.465 2.753 2.76 4.81 5.617 4.81 1.963 0 3.624-.797 4.887-2.489l2.427 1.791c-1.696 2.256-4.222 3.615-7.314 3.615-5.087 0-9.01-3.78-9.01-8.822 0-4.776 3.757-8.79 8.71-8.79m-5.252 7.231h10.34c-.566-2.587-2.66-4.312-5.154-4.312-2.493 0-4.588 1.725-5.186 4.313ZM71.602 17.98c-2.194 0-3.79 1.691-3.79 4.311v9.619h-3.358V14.995h3.327v2.09c.83-1.36 2.194-2.222 4.056-2.222H73v3.118l-1.398-.001Z" fill="currentColor"/>
</svg>