<svg width="100%" height="100%" viewBox="0 0 97 42" fill="none" xmlns="http://www.w3.org/2000/svg">
  <path d="m2.04 15.998 2.249 8.218 2.354-8.218h3.045l2.355 8.188 2.249-8.188h2.026l-2.881 9.748h-2.745l-2.519-8.338-2.52 8.338H2.895L0 15.998h2.04ZM16.377 20.843c0-2.937 1.725-4.993 5.339-4.993 3.164 0 5.039 1.814 5.039 5.008v.48h-8.248c.134 1.65 1.094 2.79 3.224 2.79 1.724 0 2.46-.78 2.64-1.515l.03-.088h2.25l-.015.09c-.285 1.8-1.89 3.284-4.934 3.284-3.6 0-5.324-2.054-5.324-5.039l-.001-.017Zm8.263-.99-.015-.03c-.223-1.41-1.287-2.204-2.999-2.204-1.785 0-2.73.885-3.03 2.235h6.044ZM35.317 24.263c-1.005 1.11-2.444 1.634-4.184 1.634-2.01 0-3.494-.704-3.494-2.505 0-1.859 1.44-2.653 3.584-2.879l2.294-.24c1.575-.165 2.685-.3 2.837-1.14l-.016.152.016-.104c.195-1.064-.6-1.605-2.325-1.605-1.814 0-2.849.557-3.15 2.127l-.03.138h-2.042l.03-.136c.495-2.43 2.16-3.853 5.339-3.853 3.284 0 4.604 1.454 4.11 3.778l-1.304 6.117h-1.98l.315-1.484Zm-3.734.136c2.026 0 3.854-.93 4.439-3.36v-.029l.045-.21c-.42.524-1.335.81-2.49.915l-1.934.223c-1.5.152-1.934.63-1.934 1.29 0 .766.674 1.17 1.874 1.17ZM42.26 17.544c.75-1.05 1.874-1.694 3.315-1.694 2.31 0 3.569 1.92 2.85 4.544l-.18.615H46.16l.165-.615c.42-1.485.045-2.79-1.605-2.79-1.694 0-2.64 1.14-3 2.505l-1.199 5.638h-2.04L40.55 16h2.04l-.33 1.545ZM54.933 15.85c3.674 0 5.115 2.219 4.589 5.053l-.076.435h-8.082c-.03 1.695 1.14 2.79 3.09 2.79 1.409 0 2.338-.585 2.698-1.44l.09-.165h2.055l-.06.18c-.615 1.83-2.145 3.194-4.92 3.194-3.568 0-5.563-2.431-4.873-5.804.45-2.009 2.085-4.243 5.489-4.243Zm2.654 3.973v-.06c.075-1.334-.9-2.144-2.564-2.144-1.98 0-2.938 1.14-3.36 2.204h5.924ZM69.18 24.367c-.525.72-1.605 1.53-3.434 1.53-3.075 0-4.95-2.127-4.95-5.008v-.03c0-2.91 1.935-5.01 4.905-5.01 1.829 0 2.954.825 3.479 1.53V16h2.025v9.703c0 2.325-.855 3.647-3.539 3.647h-6.33v-1.76h6.06c1.484 0 1.784-.644 1.784-2.127v-1.095Zm-3.147-.24c2.114 0 3.15-1.439 3.15-3.224v-.06c0-1.784-1.02-3.224-3.15-3.224-2.19 0-3.15 1.5-3.15 3.242v.03c-.002 1.722.972 3.237 3.15 3.237ZM74.7 17.754c.45-1.035 1.71-1.904 3.314-1.904 1.92 0 3.45 1.02 3.45 3.748v1.095h-2.1v-1.034c0-1.29-.54-2.055-1.95-2.055-2.04 0-2.714 1.5-2.714 2.595v5.548h-2.04V16h2.04v1.755ZM83.726 13c.855 0 1.29.42 1.29 1.035 0 .585-.435 1.02-1.29 1.02-.84 0-1.275-.435-1.275-1.02 0-.615.435-1.035 1.275-1.035Zm1.02 3v9.747H82.72v-9.748h2.026ZM88.24 17.38c.526-.72 1.605-1.53 3.435-1.53 3.074 0 4.949 2.127 4.949 5.008v.03c0 2.91-1.935 5.01-4.904 5.01-1.83 0-2.954-.825-3.48-1.53v4.979h-2.025V15.999h2.026v1.38Zm3.15 6.748c2.19 0 3.15-1.5 3.15-3.24v-.03c0-1.724-.976-3.241-3.15-3.241-2.115 0-3.15 1.44-3.15 3.224v.063c0 1.784 1.02 3.224 3.15 3.224Z" fill="currentColor"/>
</svg>