<svg width="100%" height="100%" viewBox="0 0 94 42" fill="none" xmlns="http://www.w3.org/2000/svg">
<path d="m28.304 17.167-4.67 8.306h2.864l.799-1.482h5.35l.822 1.482h2.761l-4.542-8.306h-3.384Zm-.1 5.09 1.766-3.31 1.793 3.31h-3.56ZM46.865 17.946c-.572-.574-1.393-.779-3.149-.779h-7.157v8.306h7.503c.882 0 1.255-.025 1.73-.125.907-.166 1.604-.945 1.74-1.94.086-.69.125-1.385.117-2.08 0-.398-.025-.97-.05-1.356-.086-1.057-.274-1.578-.734-2.026Zm-2.526 5.45c-.298.1-.348.1-1.032.1h-4.232v-4.257h4.281c1.457 0 1.755.361 1.755 2.103-.002 1.431-.168 1.867-.772 2.054ZM58.816 19.912c0-1.12-.225-1.831-.709-2.216-.484-.384-1.12-.529-2.588-.529H48.36v8.306h2.512v-2.09h3.87c1.134-.026 1.382.166 1.393 1.058v1.032h2.565v-1.307c.025-1.256-.286-1.692-1.32-1.866 1.06-.236 1.435-.845 1.435-2.388Zm-3.995 1.443h-3.945v-2.14h4.034c.759 0 .97.038 1.156.236.187.198.212.398.212.933 0 .821-.237.97-1.457.97ZM63.676 17.167l-4.66 8.3h2.86l.792-1.476h5.351l.822 1.482h2.762l-4.543-8.306h-3.384Zm-.093 5.097 1.768-3.311 1.79 3.31h-3.558ZM80.907 17.174l.062 6.308-5.027-6.308h-4.018v8.3h2.425l-.062-6.246 4.952 6.245h4.057v-6.245h3.695v6.245h2.527v-6.245h3.695v-2.054H80.907ZM24.016 17.167h-2.544v4.07c0 1.276-.123 1.734-.51 1.947-.385.213-.736.255-2.624.258h-3.143v2.03h3.198c1.74 0 2.996-.049 3.469-.137.922-.167 1.445-.521 1.767-1.132.323-.611.387-1.194.387-2.8v-4.236Z" fill="#D2FF00"/><path d="M15.196 17.174h-2.551v6.268h2.551v-6.268Z" fill="#D2FF00"/><path d="M11.244 23.443c.093-.457.125-1.062.125-2.039v-.166c0-1.423-.03-1.813-.187-2.364-.236-.884-.72-1.356-1.664-1.63C8.893 17.063 8.096 17 6.53 17H4.84c-1.568 0-2.365.062-2.986.236-.947.273-1.431.746-1.664 1.63-.165.573-.19.964-.19 2.538 0 1.605.087 2.202.386 2.798.3.596.846.954 1.766 1.132.473.088 1.73.138 3.47.138h7.028v-2.029h-1.406Zm-5.56 0c-1.886 0-2.215-.045-2.623-.26-.408-.214-.511-.665-.511-1.953 0-2.116.125-2.201 2.873-2.201h.523c2.748 0 2.876.085 2.876 2.2v.099c0 1.21-.133 1.654-.51 1.862-.409.215-.737.255-2.624.26" fill="currentColor"/>
</svg>